<svg width="31" height="31" viewBox="0 0 31 31" fill="none" xmlns="http://www.w3.org/2000/svg">
<path d="M25.8329 10.333L18.083 3.53895C17.3726 2.90352 16.4529 2.55222 15.4997 2.55222C14.5466 2.55222 13.6269 2.90352 12.9164 3.53895L5.16653 10.333C4.75626 10.7 4.42886 11.1501 4.20615 11.6534C3.98343 12.1568 3.8705 12.7018 3.87488 13.2522V24.5412C3.87488 25.5689 4.28313 26.5545 5.00982 27.2812C5.73652 28.0079 6.72213 28.4161 7.74983 28.4161H23.2496C24.2773 28.4161 25.2629 28.0079 25.9896 27.2812C26.7163 26.5545 27.1246 25.5689 27.1246 24.5412V13.2392C27.1271 12.691 27.0133 12.1485 26.7906 11.6475C26.568 11.1465 26.2416 10.6985 25.8329 10.333ZM18.083 25.8328H12.9164V19.3746C12.9164 19.032 13.0525 18.7035 13.2947 18.4613C13.537 18.219 13.8655 18.0829 14.2081 18.0829H16.7914C17.1339 18.0829 17.4625 18.219 17.7047 18.4613C17.9469 18.7035 18.083 19.032 18.083 19.3746V25.8328ZM24.5413 24.5412C24.5413 24.8838 24.4052 25.2123 24.163 25.4545C23.9207 25.6968 23.5922 25.8328 23.2496 25.8328H20.6663V19.3746C20.6663 18.3469 20.2581 17.3613 19.5314 16.6346C18.8047 15.9079 17.8191 15.4996 16.7914 15.4996H14.2081C13.1804 15.4996 12.1948 15.9079 11.4681 16.6346C10.7414 17.3613 10.3331 18.3469 10.3331 19.3746V25.8328H7.74983C7.40726 25.8328 7.07872 25.6968 6.83649 25.4545C6.59426 25.2123 6.45818 24.8838 6.45818 24.5412V13.2392C6.45841 13.0559 6.49769 12.8746 6.57341 12.7076C6.64914 12.5405 6.75956 12.3915 6.89734 12.2705L14.6472 5.48935C14.8829 5.28227 15.186 5.16807 15.4997 5.16807C15.8135 5.16807 16.1165 5.28227 16.3522 5.48935L24.1021 12.2705C24.2399 12.3915 24.3503 12.5405 24.426 12.7076C24.5018 12.8746 24.541 13.0559 24.5413 13.2392V24.5412Z" fill="#005E8D"/>
</svg>
