<svg width="1170" height="111" viewBox="0 0 1170 111" fill="none" xmlns="http://www.w3.org/2000/svg">
<g clip-path="url(#clip0_289_699)">
<path fill-rule="evenodd" clip-rule="evenodd" d="M91.3007 54.8385C91.2856 48.5811 89.313 42.4641 85.6252 37.2391C81.9373 32.014 76.6949 27.9086 70.5421 25.4272C64.3892 22.9458 57.5939 22.1965 50.9912 23.2713C44.3884 24.3462 38.2658 27.1985 33.3756 31.4776C28.4854 35.7567 25.0407 41.2764 23.4646 47.3583C21.8886 53.4402 22.2498 59.8196 24.5041 65.7124C26.7583 71.6053 30.8073 76.755 36.1536 80.5288C41.4999 84.3027 47.9105 86.5362 54.5979 86.955V62.0822C52.711 61.5806 51.0819 60.459 50.0111 58.9242C48.9403 57.3894 48.4999 55.5449 48.7711 53.7308C49.0424 51.9167 50.007 50.2553 51.4871 49.053C52.9672 47.8507 54.863 47.1884 56.8249 47.1884C58.7869 47.1884 60.6827 47.8507 62.1628 49.053C63.6428 50.2553 64.6075 51.9167 64.8787 53.7308C65.15 55.5449 64.7096 57.3894 63.6388 58.9242C62.568 60.459 60.9389 61.5806 59.052 62.0822V86.955C67.7891 86.4235 75.9826 82.8089 81.97 76.8446C87.9575 70.8803 91.2906 63.0129 91.2931 54.8385H91.3007Z" fill="#00B6F0"/>
<path fill-rule="evenodd" clip-rule="evenodd" d="M140.043 41.4483L146.298 29.7718C134.459 19.4356 111.966 19.893 104.633 34.6971C102.677 38.6408 102.749 43.0103 104.61 47.6049C105.511 49.8213 107.131 52.5865 109.701 54.5672C111.016 55.5804 116.062 57.9164 120.143 59.6438C123.964 61.2585 129.221 62.4195 131.632 65.6034C134.391 69.2446 132.688 73.7407 126.289 74.5604C122.705 75.0177 117.37 73.6281 109.419 67.6368L101.008 77.9131C127.762 99.69 152.444 80.6221 146.66 63.6755C145.191 59.3729 142.165 56.0624 138.419 53.5364C132.627 49.6278 126.579 48.5688 122.54 46.9259C114.973 43.8476 116.043 35.179 126.534 35.7103C133.174 36.0445 135.306 37.8211 140.043 41.4658V41.4483Z" fill="#271E79" stroke="black" stroke-width="0.0416863" stroke-miterlimit="22.93"/>
<path fill-rule="evenodd" clip-rule="evenodd" d="M153.602 22.6973H179.535C188.254 22.6973 198.478 29.7686 198.478 38.2155C198.478 40.1645 198.621 41.628 198.478 43.8937C198.195 48.3757 193.767 53.3925 190.915 53.3925C195.354 53.3925 199.793 59.3345 200.882 63.4436C203.52 73.4315 197.909 87.6515 179.535 87.6515H153.602V22.6973ZM167.51 34.5532H177.684C181.509 34.5532 184.637 37.5823 184.637 41.2903V42.2543C184.637 45.4205 181.958 48.0239 178.679 48.0239H174.493V60.0381H179.391C183.827 60.0381 187.452 63.5562 187.452 67.8448C187.452 72.1368 183.827 75.6514 179.391 75.6514H167.51V34.5532Z" fill="#271E79" stroke="black" stroke-width="0.0416863" stroke-miterlimit="22.93"/>
<path fill-rule="evenodd" clip-rule="evenodd" d="M207.815 22.6973H222.481V87.6621H207.815V22.6973Z" fill="#271E79" stroke="black" stroke-width="0.0416863" stroke-miterlimit="22.93"/>
</g>
<g clip-path="url(#clip1_289_699)">
<g clip-path="url(#clip2_289_699)">
<path d="M385.573 27.1797H388.503C388.754 27.2244 389.007 27.2528 389.261 27.2648C392.632 27.5558 395.884 28.6496 398.748 30.4554C400.836 31.7802 402.59 33.5709 403.873 35.6879C404.218 36.256 404.533 36.8418 404.817 37.4427C405.672 39.3033 406.21 41.2951 406.407 43.3347C406.465 43.659 406.439 43.994 406.497 44.3237C406.555 44.6534 406.497 45.1214 406.497 45.5255C406.517 45.9868 406.503 46.449 406.455 46.9081C406.391 48.0908 406.242 49.2673 406.009 50.4284C405.887 51.1197 405.675 51.795 405.538 52.4863L401.356 69.2528C401.128 70.2897 400.852 71.316 400.603 72.3423C400.473 73.0184 400.229 73.6674 399.883 74.262C399.595 74.7116 399.237 75.112 398.823 75.4478C397.836 76.2044 396.625 76.6087 395.383 76.5965C394.859 76.565 394.341 76.4685 393.841 76.3093C393.307 76.1319 392.822 75.8314 392.425 75.4319C391.886 74.9315 391.566 74.2377 391.535 73.5016C391.508 73.0478 391.568 72.5931 391.71 72.1615C392.374 69.5063 393.035 66.8563 393.692 64.2117C393.978 63.095 394.222 61.9623 394.514 60.8456C395.478 56.985 396.441 53.1262 397.402 49.2691C397.632 48.3229 397.781 47.3587 397.847 46.387C397.87 45.6386 397.852 44.8895 397.794 44.1429C397.701 43.2095 397.474 42.2944 397.121 41.4256C396.794 40.5906 396.322 39.8201 395.727 39.1497C395.529 38.9281 395.315 38.7219 395.086 38.5328C394.993 38.4341 394.892 38.3433 394.784 38.2616C394.171 37.7728 393.495 37.3686 392.775 37.0598C392.139 36.7558 391.473 36.5188 390.788 36.3526C389.846 36.0759 388.874 35.9117 387.894 35.8634C387.456 35.8155 387.015 35.7995 386.574 35.8155C386.224 35.8155 385.885 35.89 385.514 35.8793C383.891 36.0298 382.296 36.3982 380.771 36.9748C379.771 37.3422 378.801 37.7885 377.872 38.3095C376.737 38.9609 375.671 39.7271 374.692 40.5961C374.363 40.9364 374.024 41.2661 373.695 41.6064C373.022 42.3438 372.469 43.1838 372.058 44.0951C371.644 45.4458 371.294 46.8177 370.918 48.1737C370.457 49.9392 369.98 51.694 369.54 53.4594C369.01 55.4589 368.528 57.4689 367.95 59.4577C367.696 60.2908 367.44 61.1257 367.182 61.9623C367.089 62.4255 366.945 62.8768 366.752 63.3077C366.395 64.0533 365.865 64.7024 365.206 65.2009C364.548 65.6994 363.781 66.033 362.968 66.1739C361.857 66.4126 360.697 66.2227 359.719 65.6421C359.423 65.4498 359.16 65.211 358.94 64.9349C358.524 64.4299 358.263 63.8149 358.187 63.1641C358.116 62.8635 358.116 62.5501 358.187 62.2495C359.502 57.9316 360.546 53.5339 361.691 49.1734C362.332 46.7113 362.968 44.244 363.684 41.8032C363.856 41.2108 364.09 40.6386 364.383 40.0962C365.18 38.4831 366.2 36.9917 367.415 35.6666L368.814 34.2628C369.545 33.6097 370.309 32.9956 371.104 32.4229C371.506 32.0879 371.973 31.8433 372.402 31.5402C374.122 30.4578 375.954 29.5662 377.866 28.8813C378.338 28.7218 378.799 28.5251 379.281 28.4027C380.294 28.0905 381.324 27.8384 382.366 27.6476C383.172 27.4775 383.993 27.403 384.809 27.2914C385.053 27.2926 385.296 27.2694 385.535 27.2222L385.573 27.1797Z" fill="#00579C"/>
<path d="M351.403 35.5762C351.689 35.5762 351.97 35.5018 352.256 35.5071C353.01 35.5439 353.751 35.7149 354.445 36.0123C354.933 36.2386 355.354 36.5864 355.67 37.0226C355.853 37.2945 355.976 37.6031 356.029 37.9273C356.082 38.2514 356.064 38.5832 355.977 38.8998C355.611 40.3302 355.277 41.7766 354.89 43.2017C354.459 44.9353 354.028 46.667 353.597 48.397C353.274 49.7105 352.914 51.0186 352.601 52.3374C352.223 53.837 351.848 55.3383 351.477 56.8414C351.159 58.022 350.873 59.2184 350.576 60.4096C350.21 61.6874 350 63.0052 349.951 64.334C349.89 64.6859 349.89 65.0456 349.951 65.3975C349.972 66.7912 350.281 68.1654 350.857 69.4336C351.12 69.9557 351.431 70.4523 351.785 70.9172C352.055 71.255 352.353 71.5698 352.675 71.8584C353.038 72.1725 353.424 72.4587 353.83 72.7146C354.275 72.9895 354.737 73.2346 355.214 73.4484C356.276 73.8755 357.379 74.1926 358.505 74.395C359.556 74.5689 360.622 74.6259 361.685 74.5651C364.353 74.3912 366.953 73.6536 369.317 72.4008C370.706 71.6813 371.999 70.7879 373.165 69.742C373.841 69.1112 374.447 68.4087 374.972 67.6469C375.314 67.1897 375.579 66.6796 375.757 66.1367C377.156 61.2976 378.338 56.4001 379.631 51.5291C379.896 50.5666 380.219 49.6254 380.5 48.6683C380.752 47.7733 381.195 46.9441 381.799 46.2381C382.144 45.8148 382.56 45.4549 383.028 45.1746C384.022 44.5601 385.191 44.2945 386.351 44.4195C386.907 44.4724 387.447 44.6332 387.941 44.8927C388.559 45.1743 389.069 45.6503 389.393 46.2487C389.67 46.8305 389.732 47.4919 389.568 48.1152C388.699 51.0293 387.925 53.9646 387.173 56.9159C386.145 60.8829 385.153 64.8551 383.993 68.7902C383.89 69.1456 383.755 69.4909 383.59 69.8218C383.306 70.4728 382.975 71.102 382.599 71.7042C381.955 72.7699 381.206 73.7675 380.362 74.6821C380.018 75.1181 379.588 75.4798 379.212 75.8839C377.27 77.6925 375.069 79.1999 372.683 80.356C372.009 80.6591 371.342 80.9835 370.647 81.2441C370.048 81.5046 369.412 81.6854 368.798 81.9088C367.844 82.2172 366.874 82.4405 365.899 82.6745C365.522 82.749 365.151 82.7968 364.78 82.8766C364.208 82.9776 363.635 83.0202 363.063 83.1106C362.768 83.1155 362.474 83.1422 362.183 83.1903H359.242C359.133 83.1571 359.021 83.1392 358.908 83.1372C358.489 83.1372 358.076 83.0255 357.657 83.0042C356.385 82.8396 355.129 82.5638 353.905 82.18C352.536 81.7617 351.216 81.1984 349.967 80.4996C349.064 79.9741 348.204 79.3766 347.396 78.7129C347.133 78.5003 346.882 78.273 346.644 78.0322C346.278 77.6494 345.875 77.309 345.547 76.8942C343.368 74.3665 341.972 71.2563 341.529 67.9447C341.439 67.4129 341.423 66.8811 341.333 66.3494V63.3396C341.372 63.1379 341.395 62.9334 341.402 62.7281C341.537 61.2462 341.797 59.7785 342.181 58.341C342.801 55.8843 343.389 53.4116 344.036 50.9601L345.515 45.031C345.976 43.2974 346.384 41.5479 346.829 39.8037C346.916 39.3655 347.044 38.9364 347.211 38.5222C347.411 38.046 347.692 37.6086 348.043 37.23C348.228 37.0545 348.403 36.8631 348.573 36.6983C349.389 36.0582 350.371 35.6686 351.403 35.5762Z" fill="#DA251C"/>
<path d="M423.854 39.3623H429.906C428.935 44.017 427.961 48.6664 426.986 53.3105C426.737 54.2297 426.601 55.1763 426.583 56.1288C426.549 56.6549 426.663 57.1799 426.912 57.6443C427.162 58.0529 427.549 58.3584 428.004 58.5058C428.418 58.6429 428.846 58.7304 429.281 58.7663C429.839 58.8056 430.4 58.7752 430.95 58.676C431.643 58.5761 432.3 58.3057 432.864 57.8889C433.617 57.1962 434.153 56.2981 434.406 55.3046C434.592 54.709 434.698 54.0975 434.83 53.4913C435.819 48.7905 436.805 44.0915 437.787 39.3942C437.856 39.3464 437.952 39.3942 438.037 39.3623C439.982 39.3623 441.932 39.3623 443.867 39.3623C443.639 40.6066 443.337 41.835 443.103 43.0846C442.57 45.6158 442.04 48.147 441.513 50.6782C441.254 51.8906 441.02 53.1137 440.74 54.3208C440.447 55.6017 440.025 56.849 439.478 58.0432C438.984 59.0121 438.334 59.8925 437.554 60.6488C435.796 62.2627 433.602 63.3191 431.247 63.6852C430.84 63.763 430.427 63.8092 430.012 63.8234C429.422 63.8784 428.829 63.8962 428.237 63.8766C427.908 63.8766 427.59 63.7968 427.262 63.8128C426.038 63.7061 424.845 63.3668 423.748 62.8131C422.858 62.353 422.085 61.6967 421.485 60.8934C420.759 59.8524 420.397 58.5996 420.456 57.3306C420.436 56.7318 420.466 56.1323 420.547 55.5385C420.721 54.124 421.077 52.7361 421.347 51.3376C422.099 47.7801 422.836 44.2173 423.589 40.6651C423.658 40.2238 423.795 39.8037 423.843 39.3623H423.854Z" fill="#DA251C"/>
<path d="M468.002 39.3623C469.926 39.3623 471.85 39.3623 473.769 39.3623C473.445 40.9257 473.111 42.4944 472.783 44.0631H467.006C467.34 42.4944 467.663 40.9257 468.002 39.3623Z" fill="#DA251C"/>
<path d="M526.345 39.4097C526.408 39.3512 526.504 39.3831 526.589 39.3725H538.211C538.464 39.3564 538.719 39.3671 538.969 39.4044C540.178 39.4346 541.373 39.6757 542.499 40.1169C542.984 40.3103 543.425 40.6011 543.794 40.9714C544.163 41.3418 544.453 41.7839 544.646 42.2706C544.897 43.0177 544.972 43.8134 544.863 44.5944C544.798 45.2094 544.674 45.8167 544.492 46.4077C544.275 47.0294 543.974 47.6181 543.596 48.1572C543.296 48.5391 542.965 48.8949 542.605 49.2207C541.878 49.8233 541.046 50.2865 540.151 50.5874C540.814 50.7608 541.434 51.0685 541.974 51.4914C542.234 51.7098 542.467 51.9579 542.669 52.2305C543.143 52.8961 543.385 53.6997 543.358 54.5171C543.374 55.0737 543.315 55.63 543.183 56.1709C542.895 57.3287 542.39 58.4207 541.694 59.3881C541.299 59.9048 540.857 60.3837 540.374 60.8185C539.513 61.578 538.507 62.1534 537.416 62.5095C536.558 62.7999 535.669 62.9873 534.766 63.0678C534.414 63.1075 534.061 63.1271 533.706 63.1263C532.949 63.2433 532.18 63.1264 531.417 63.1955C530.866 63.2486 530.311 63.2646 529.758 63.2433C526.954 63.2433 524.156 63.2433 521.357 63.2433C523.022 55.2917 524.689 47.3401 526.361 39.3884L526.345 39.4097ZM531.2 44.2381C531.169 44.4837 531.123 44.7271 531.062 44.9666C530.802 46.195 530.532 47.4287 530.288 48.6518C531.878 48.6518 533.468 48.6518 535.058 48.6518C535.783 48.6913 536.508 48.5659 537.178 48.2848C537.653 48.087 538.05 47.7375 538.307 47.2904C538.551 46.8861 538.681 46.423 538.683 45.9504C538.718 45.6622 538.674 45.3699 538.556 45.1049C538.392 44.7943 538.118 44.557 537.787 44.4402C537.344 44.2724 536.872 44.1982 536.399 44.2222C534.666 44.2222 532.933 44.2222 531.2 44.2222V44.2381ZM529.313 53.2621C529.276 53.6237 529.17 53.9694 529.101 54.3257C528.952 55.0542 528.799 55.7827 528.645 56.5112C528.528 57.1493 528.359 57.7768 528.263 58.4202C529.965 58.4468 531.661 58.4202 533.362 58.4202C534.238 58.4075 535.101 58.2157 535.901 57.8566C536.251 57.6368 536.55 57.344 536.778 56.9982C537.005 56.6523 537.156 56.2613 537.22 55.8518C537.347 55.4945 537.367 55.1081 537.28 54.7392C537.192 54.3704 537.001 54.0347 536.727 53.7726C536.008 53.3437 535.17 53.1573 534.337 53.2409C532.662 53.2409 530.988 53.2409 529.313 53.2409V53.2621Z" fill="#DA251C"/>
<path d="M589.966 39.3623C591.858 39.3623 593.745 39.3623 595.637 39.3623L595.558 39.8037C595.282 41.0799 595.028 42.3615 594.747 43.6377C594.217 46.2965 593.634 48.9021 593.104 51.5344C593.41 51.3061 593.699 51.0555 593.968 50.7846C594.259 50.5612 594.498 50.2528 594.779 50.0454C595.06 49.838 595.272 49.5456 595.558 49.3329C595.725 49.1568 595.902 48.99 596.088 48.833C596.353 48.6256 596.559 48.3491 596.83 48.1417C597.1 47.9343 597.27 47.7004 597.519 47.5089C597.704 47.3407 597.881 47.1633 598.049 46.9772C598.383 46.7219 598.653 46.3922 598.987 46.1317C599.178 45.9828 599.321 45.7754 599.517 45.6318C600.132 45.5946 600.757 45.6318 601.377 45.6318C603.02 45.6318 604.663 45.6318 606.301 45.6318V45.6743L599.575 51.6992C599.321 51.8906 599.125 52.1565 598.854 52.3267C599.114 53.0924 599.443 53.8369 599.718 54.5973C600.672 57.0168 601.6 59.4417 602.554 61.8559C602.723 62.3504 602.951 62.8184 603.11 63.3182C600.99 63.3182 598.833 63.3182 596.697 63.3182C595.855 60.9891 595.001 58.6547 594.153 56.3202C593.947 56.4714 593.749 56.6329 593.56 56.8041L591.97 58.1548C591.816 58.2931 591.615 58.4047 591.567 58.6121C591.238 60.1649 590.92 61.7176 590.586 63.2651H584.974C585.004 63.0002 585.05 62.7374 585.111 62.4781C586.461 56.0437 587.811 49.6076 589.161 43.1697C589.431 41.9095 589.691 40.6385 589.966 39.3836V39.3623Z" fill="#DA251C"/>
<path d="M483.739 45.0096C484.131 44.9617 484.529 45.0096 484.921 45.0096C486.337 44.9623 487.747 45.2349 489.044 45.8072C489.577 46.0423 490.068 46.3639 490.496 46.7591C490.701 46.9058 490.88 47.0854 491.026 47.2908C491.375 47.6688 491.66 48.1018 491.869 48.5724C492.289 49.4524 492.522 50.4103 492.553 51.3854C492.568 51.8077 492.554 52.2306 492.51 52.651C492.465 53.2446 492.38 53.8344 492.256 54.4165C492.107 55.1146 491.912 55.802 491.673 56.4744C491.518 56.912 491.341 57.3415 491.143 57.7612C490.732 58.5941 490.217 59.3713 489.611 60.0744C489.376 60.353 489.127 60.6192 488.864 60.8721C488.693 61.0042 488.532 61.1482 488.382 61.3028C488.143 61.4942 487.894 61.6591 487.666 61.8346C485.926 63.041 483.876 63.7185 481.762 63.7861C480.469 63.8925 479.167 63.7738 477.914 63.4352C477.296 63.2638 476.706 63.006 476.16 62.6694C475.056 61.986 474.212 60.9505 473.764 59.7288C473.395 58.6128 473.258 57.4328 473.361 56.2617C473.414 55.9373 473.393 55.6023 473.473 55.2832C473.774 52.8669 474.756 50.5869 476.303 48.7106C476.522 48.4315 476.76 48.1668 477.013 47.9183C477.204 47.7854 477.347 47.5992 477.543 47.4503C478.362 46.7693 479.281 46.2187 480.267 45.8178C481.39 45.3594 482.578 45.0796 483.787 44.9883L483.739 45.0096ZM483.373 49.5136C482.926 49.5862 482.494 49.7336 482.096 49.9496C481.713 50.1874 481.37 50.4834 481.078 50.827C480.291 51.8326 479.76 53.0153 479.531 54.2729C479.361 54.9689 479.279 55.6835 479.287 56.3999C479.261 56.9219 479.345 57.4434 479.531 57.9314C479.626 58.2105 479.78 58.4659 479.982 58.6805C480.184 58.895 480.43 59.0639 480.702 59.1757C481.309 59.4005 481.967 59.4493 482.601 59.3167C483.234 59.1842 483.818 58.8755 484.285 58.426C484.534 58.1962 484.761 57.9434 484.963 57.6708C485.788 56.4118 486.294 54.9697 486.437 53.4699C486.559 52.7393 486.526 51.9909 486.341 51.2737C486.279 50.9833 486.16 50.7082 485.991 50.4644C485.821 50.2206 485.605 50.0131 485.355 49.8539C484.749 49.5283 484.053 49.4089 483.373 49.5136Z" fill="#DA251C"/>
<path d="M455.336 45.3442C456.254 45.1543 457.197 45.1095 458.129 45.2113C459.031 45.2563 459.902 45.5609 460.636 46.0887C461.006 46.395 461.305 46.7779 461.514 47.2111C461.722 47.6443 461.835 48.1176 461.844 48.5986C461.879 49.1782 461.868 49.7595 461.813 50.3375C461.701 51.3691 461.442 52.3741 461.246 53.3951C460.747 55.7136 460.276 58.0427 459.777 60.3665C459.592 61.3024 459.38 62.233 459.2 63.1689C459.2 63.2646 459.057 63.238 458.993 63.2434H453.38C453.873 60.9408 454.345 58.6277 454.833 56.3304C455.05 55.2669 455.304 54.1768 455.49 53.0867C455.633 52.3532 455.69 51.6054 455.659 50.8586C455.653 50.6824 455.608 50.5096 455.53 50.3519C455.451 50.1942 455.34 50.0551 455.204 49.944C454.987 49.7838 454.734 49.6813 454.467 49.6462C453.786 49.5192 453.082 49.5931 452.442 49.8589C452.056 50.0399 451.712 50.2987 451.43 50.6193C450.742 51.5635 450.285 52.6562 450.094 53.8099C449.564 56.4102 449.034 59.0052 448.467 61.6002C448.34 62.132 448.25 62.701 448.107 63.2487H442.383C442.402 63.0167 442.443 62.787 442.505 62.5627C443.628 57.2025 444.752 51.8406 445.876 46.4769C445.934 46.195 445.976 45.9026 446.061 45.626H451.716C451.562 46.3758 451.388 47.1203 451.255 47.8701C451.626 47.5723 451.912 47.1788 452.315 46.8916C453.184 46.1314 454.227 45.5997 455.352 45.3442H455.336Z" fill="#DA251C"/>
<path d="M504.404 45.7484C505.606 45.2661 506.903 45.0713 508.193 45.1794C508.764 45.2232 509.327 45.332 509.873 45.5038C510.496 45.6936 511.049 46.0635 511.463 46.5673C511.962 47.3151 512.219 48.1989 512.2 49.0985C512.226 49.4654 512.131 49.8217 512.142 50.1886C512.014 51.3638 511.718 52.5124 511.495 53.6664C510.891 56.5308 510.29 59.3934 509.693 62.2543C509.64 62.5787 509.534 62.8925 509.502 63.2221H503.752C503.785 62.8759 503.846 62.5328 503.932 62.1958L505.522 54.6076C505.67 53.8791 505.813 53.1505 505.909 52.4167C505.959 52.1162 505.986 51.8121 505.988 51.5074C506.007 51.2081 506.007 50.908 505.988 50.6087C505.925 50.3286 505.77 50.0778 505.548 49.8962C505.281 49.7217 504.975 49.6158 504.658 49.5877C504.274 49.5245 503.881 49.539 503.503 49.6303C503.128 49.6903 502.768 49.8221 502.443 50.0185C502.2 50.1705 501.982 50.3587 501.796 50.5768C501.471 50.9423 501.211 51.3615 501.027 51.8158C500.598 53.0259 500.275 54.2714 500.063 55.5382C499.607 57.7397 499.135 59.9358 498.685 62.1427C498.597 62.4932 498.528 62.8482 498.478 63.2062C496.554 63.2062 494.63 63.2062 492.701 63.2062C493.92 57.3302 495.166 51.4595 496.411 45.5835C498.298 45.5835 500.179 45.5835 502.066 45.5835C501.928 46.3493 501.727 47.1097 501.605 47.8808C502.372 46.9743 503.327 46.2466 504.404 45.7484Z" fill="#DA251C"/>
<path d="M553.158 45.5623C554.097 45.3452 555.052 45.21 556.014 45.1582H557.445C557.673 45.1972 557.904 45.215 558.134 45.2114C558.834 45.2765 559.526 45.4064 560.201 45.5996C560.826 45.7979 561.409 46.1077 561.924 46.5142C562.349 46.8741 562.68 47.3322 562.889 47.8489C563.149 48.5811 563.239 49.363 563.154 50.1355C563.007 51.3874 562.791 52.6301 562.507 53.8579C562.2 55.3468 561.887 56.8304 561.574 58.3193C561.415 59.1223 561.214 59.9146 561.113 60.7282C561.113 61.0313 561.113 61.3398 561.113 61.6482C561.104 61.8213 561.141 61.9936 561.221 62.1471C561.302 62.3006 561.422 62.4296 561.569 62.5203C561.505 62.7489 561.489 62.9882 561.42 63.2169C561.352 63.2701 561.251 63.2169 561.177 63.2488H555.506C555.489 62.9204 555.501 62.5912 555.543 62.265C555.564 61.9996 555.564 61.7328 555.543 61.4674C554.606 62.256 553.544 62.8799 552.4 63.3126C551.518 63.6294 550.586 63.7826 549.649 63.7646C548.68 63.8344 547.711 63.6377 546.845 63.1956C546.62 63.09 546.413 62.9501 546.231 62.7808C545.92 62.5131 545.657 62.1949 545.452 61.8396C545.18 61.3648 545.022 60.8333 544.99 60.2869C544.958 59.9181 544.97 59.5466 545.028 59.1808C545.169 57.9448 545.632 56.7677 546.368 55.7669C546.591 55.4934 546.831 55.2358 547.089 54.9958C547.405 54.6828 547.761 54.4145 548.149 54.1982C549.115 53.6221 550.176 53.2258 551.282 53.0283C552.145 52.8475 553.02 52.688 553.889 52.5497C555.022 52.4363 556.127 52.125 557.154 51.6298C557.385 51.4919 557.552 51.2684 557.62 51.0076C557.657 50.763 557.737 50.5237 557.753 50.2738C557.727 49.9929 557.599 49.7316 557.392 49.5399C557.227 49.3992 557.031 49.2991 556.82 49.2475C556.245 49.0988 555.645 49.0771 555.06 49.1837C554.34 49.2583 553.667 49.5772 553.152 50.0876C552.906 50.3887 552.698 50.7191 552.532 51.0714H547.19C547.577 49.962 548.168 48.9355 548.934 48.0457C549.306 47.634 549.718 47.26 550.163 46.929C551.066 46.2886 552.082 45.8265 553.158 45.5677V45.5623ZM554.631 55.6712C553.635 55.9105 552.564 56.0009 551.69 56.5752C551.412 56.7513 551.18 56.9922 551.015 57.2774C550.85 57.5625 550.756 57.8835 550.741 58.213C550.702 58.418 550.704 58.6289 550.749 58.8327C550.794 59.0366 550.879 59.2292 551.001 59.3988C551.262 59.7283 551.643 59.9405 552.061 59.9891C552.852 60.0535 553.647 59.9029 554.361 59.553C554.862 59.297 555.302 58.934 555.649 58.4895C556.001 58.0429 556.241 57.5176 556.348 56.958C556.486 56.3093 556.629 55.6605 556.756 55.0065C556.077 55.3076 555.366 55.5323 554.636 55.6765L554.631 55.6712Z" fill="#DA251C"/>
<path d="M577.182 45.3766C578.62 45.039 580.12 45.0867 581.534 45.5148C582.029 45.6734 582.48 45.9487 582.848 46.3178C583.34 46.8009 583.655 47.4358 583.744 48.1205C583.896 49.3349 583.83 50.5668 583.548 51.7577C582.737 55.5864 581.958 59.4151 581.136 63.2438C579.212 63.2438 577.283 63.2438 575.359 63.2438C575.603 61.8931 575.921 60.5478 576.186 59.1971C576.451 57.8464 576.764 56.4479 577.061 55.0759C577.335 53.9002 577.523 52.7058 577.622 51.5025C577.67 51.2853 577.67 51.0603 577.622 50.8431C577.617 50.5522 577.508 50.2729 577.315 50.0561C577.098 49.8398 576.817 49.6983 576.515 49.6519C575.85 49.5133 575.159 49.5724 574.527 49.8221C573.948 50.0561 573.456 50.4673 573.123 50.9973C572.586 51.918 572.226 52.9318 572.063 53.9858C571.421 57.0754 570.759 60.1596 570.128 63.2491H564.319C565.436 57.9067 566.556 52.5625 567.68 47.2165C567.775 46.6847 567.929 46.1529 567.992 45.6212H573.653C573.603 45.9954 573.532 46.3664 573.441 46.7326C573.372 47.1314 573.266 47.5249 573.192 47.9237C573.425 47.7482 573.547 47.4717 573.78 47.3015C573.932 47.1885 574.074 47.0622 574.204 46.924C575.053 46.168 576.077 45.6362 577.182 45.3766Z" fill="#DA251C"/>
<path d="M466.667 45.6211H472.45C471.294 51.061 470.171 56.501 469.021 61.9409C468.952 62.377 468.809 62.8024 468.766 63.2437H462.989C464.012 58.3037 465.062 53.3689 466.09 48.4341C466.281 47.4982 466.498 46.5676 466.667 45.6211Z" fill="#DA251C"/>
<path d="M559.788 68.8649C559.98 68.8224 560.179 68.8224 560.371 68.8649C560.658 68.8649 560.944 68.9128 561.23 68.95C561.166 69.5137 561.013 70.0614 560.907 70.6197C560.554 70.5924 560.2 70.5924 559.847 70.6197C559.742 70.6284 559.641 70.6594 559.549 70.7108C559.458 70.7622 559.379 70.8327 559.317 70.9175C559.119 71.3708 558.982 71.8482 558.909 72.3373C559.439 72.3373 559.969 72.3373 560.499 72.3373C560.403 72.8319 560.297 73.3211 560.197 73.8156C559.667 73.8156 559.137 73.8156 558.607 73.8156C558.289 75.1823 558.034 76.5649 557.732 77.9368C557.488 79.1226 557.234 80.3138 556.985 81.4996C556.328 81.4996 555.67 81.4996 555.008 81.4996C555.49 79.2556 555.946 77.0115 556.423 74.7728C556.465 74.4484 556.582 74.1347 556.603 73.8103C556.142 73.7837 555.686 73.8103 555.225 73.8103C555.315 73.3158 555.464 72.8266 555.522 72.3267C555.994 72.3267 556.46 72.3267 556.932 72.3267C557.05 71.6321 557.227 70.9489 557.462 70.2847C557.65 69.9179 557.916 69.5967 558.241 69.3435C558.681 69.0489 559.196 68.8865 559.725 68.8756L559.788 68.8649Z" fill="#DA251C"/>
<path d="M567.362 68.9971H569.482C569.434 69.5288 569.27 70.0606 569.18 70.5924C568.417 74.2296 567.643 77.8722 566.891 81.5148H564.771C564.789 81.2531 564.837 80.9945 564.914 80.7437C565.719 76.8193 566.583 72.9108 567.362 68.9971Z" fill="#DA251C"/>
<path d="M588.201 68.9973H590.141C589.309 73.0174 588.456 77.0322 587.613 81.0524C587.56 81.1959 587.613 81.3874 587.481 81.4991C586.86 81.4991 586.235 81.4991 585.615 81.4991C585.71 81.1375 585.774 80.7705 585.843 80.4089C585.435 80.7773 584.987 81.0984 584.507 81.3661C583.95 81.6682 583.322 81.8133 582.689 81.7862C582.275 81.7997 581.862 81.723 581.48 81.5614C581.097 81.3999 580.754 81.1573 580.474 80.8503C580.246 80.5488 580.055 80.2201 579.907 79.8719C579.778 79.4498 579.696 79.0146 579.663 78.5744C579.666 78.249 579.687 77.9241 579.727 77.6012C579.867 76.5113 580.227 75.4617 580.787 74.517C580.992 74.178 581.236 73.864 581.513 73.5811C581.656 73.4008 581.821 73.2399 582.006 73.1025C582.503 72.6472 583.105 72.321 583.757 72.1523C584.409 71.9836 585.092 71.9776 585.747 72.1347C586.187 72.2505 586.586 72.4839 586.903 72.81C587.057 72.9802 587.184 73.177 587.327 73.3418C587.592 71.9486 587.905 70.566 588.186 69.1834L588.217 68.9707L588.201 68.9973ZM584.332 73.8098C583.693 73.9631 583.129 74.3402 582.742 74.8733C582.438 75.2889 582.205 75.7526 582.053 76.2452C581.829 76.9036 581.723 77.5969 581.741 78.2925C581.773 78.8011 581.981 79.2825 582.329 79.6538C582.622 79.8747 582.975 80.0025 583.341 80.0207C583.648 80.0394 583.957 80.018 584.258 79.9569C584.795 79.8194 585.278 79.5208 585.642 79.1008C586.344 78.1287 586.739 76.967 586.776 75.7666C586.791 75.3018 586.674 74.8423 586.437 74.4426C586.278 74.2294 586.069 74.0593 585.828 73.9479C585.588 73.8364 585.323 73.7871 585.058 73.8044C584.811 73.7981 584.563 73.8087 584.317 73.8363L584.332 73.8098Z" fill="#DA251C"/>
<path d="M592.378 68.9975H594.376C594.259 69.6675 594.127 70.3375 593.963 70.9969C593.3 70.9969 592.643 70.9969 591.98 70.9969C592.102 70.3269 592.283 69.6675 592.378 68.9922V68.9975Z" fill="#DA251C"/>
<path d="M549.4 71.8482C550.153 71.7725 550.913 71.8283 551.647 72.013C552.203 72.1696 552.715 72.4554 553.14 72.8471C553.565 73.2388 553.893 73.7254 554.096 74.2677C554.438 75.4251 554.438 76.6571 554.096 77.8146C553.894 78.5515 553.55 79.2416 553.084 79.8459C552.829 80.1798 552.536 80.4816 552.209 80.7446C551.16 81.583 549.839 82.0033 548.499 81.9251C547.863 81.9192 547.234 81.7929 546.644 81.5529C546.389 81.4686 546.153 81.3349 545.95 81.1594C545.494 80.8264 545.124 80.3895 544.869 79.8846C544.615 79.3798 544.484 78.8216 544.487 78.2559C544.434 78.0286 544.434 77.792 544.487 77.5646C544.48 76.3571 544.839 75.176 545.515 74.1773C546.177 73.176 547.155 72.4269 548.292 72.0502C548.647 71.942 549.011 71.8655 549.379 71.8216L549.4 71.8482ZM549.549 73.2573C549.136 73.2979 548.736 73.4209 548.372 73.6189C548.033 73.801 547.737 74.0529 547.503 74.3581C547.018 74.9864 546.673 75.7117 546.49 76.4851C546.366 76.9533 546.307 77.4365 546.316 77.9209C546.287 78.2711 546.33 78.6235 546.442 78.9564C546.554 79.2893 546.733 79.5956 546.967 79.8565C547.17 80.0303 547.401 80.1671 547.651 80.2607C548.271 80.4792 548.941 80.5079 549.578 80.3432C550.214 80.1784 550.787 79.8276 551.223 79.3354C551.553 78.9548 551.819 78.524 552.013 78.0592C552.256 77.4254 552.403 76.7585 552.448 76.081C552.518 75.4441 552.405 74.8005 552.124 74.2252C551.945 73.9518 551.705 73.7231 551.424 73.5563C551.143 73.3896 550.828 73.2892 550.503 73.2627C550.194 73.211 549.878 73.2128 549.57 73.268L549.549 73.2573Z" fill="#DA251C"/>
<path d="M598.913 72.0604C599.745 71.971 600.586 72.0487 601.388 72.289C601.834 72.4184 602.219 72.7032 602.474 73.092C602.638 73.3395 602.724 73.63 602.723 73.9269C602.696 74.684 602.58 75.4354 602.379 76.1656C602.162 77.1919 601.95 78.2235 601.727 79.2498C601.671 79.5002 601.671 79.7598 601.727 80.0102C601.985 80.0734 602.251 80.0968 602.517 80.0794C602.405 80.5686 602.31 81.0525 602.204 81.5417C601.597 81.7092 600.956 81.7092 600.349 81.5417C600.106 81.4711 599.899 81.3092 599.771 81.0897C599.657 80.8557 599.614 80.5929 599.649 80.3346C599.203 80.808 598.661 81.1808 598.059 81.4283C597.458 81.6758 596.811 81.7924 596.162 81.7704C595.838 81.7784 595.515 81.7214 595.213 81.6027C594.911 81.484 594.635 81.306 594.402 81.0791C594.175 80.8355 594.019 80.5337 593.952 80.207C593.878 79.6287 593.945 79.0411 594.148 78.4947C594.335 77.8926 594.706 77.3645 595.208 76.9845C595.703 76.6491 596.254 76.4059 596.835 76.2666C597.396 76.1257 597.966 76.0244 598.542 75.9635C599.189 75.928 599.819 75.7462 600.386 75.4317C600.533 75.3187 600.644 75.1661 600.707 74.9918C600.77 74.8176 600.782 74.6289 600.741 74.448C600.718 74.2972 600.65 74.1568 600.547 74.0442C600.445 73.9317 600.311 73.852 600.163 73.8152C599.693 73.6972 599.205 73.6612 598.722 73.7088C598.264 73.7538 597.831 73.9395 597.482 74.2406C597.248 74.5091 597.097 74.8397 597.047 75.1925C596.422 75.1925 595.796 75.1925 595.166 75.1925C595.202 74.9123 595.277 74.6385 595.388 74.3789C595.515 74.0367 595.71 73.7238 595.961 73.4589C596.726 72.626 597.785 72.1245 598.913 72.0604ZM599.098 77.2982C598.359 77.3958 597.628 77.5451 596.909 77.7449C596.726 77.8115 596.559 77.9152 596.417 78.0498C596.276 78.1843 596.164 78.3466 596.088 78.5266C595.985 78.7158 595.931 78.9279 595.931 79.1435C595.931 79.359 595.985 79.5711 596.088 79.7603C596.217 79.9369 596.405 80.0614 596.618 80.1113C597.221 80.2397 597.848 80.1841 598.42 79.9517C598.769 79.8167 599.087 79.6125 599.356 79.3512C599.625 79.0898 599.838 78.7769 599.983 78.4309C600.123 77.9523 600.235 77.4658 600.317 76.9739C599.918 77.1074 599.511 77.2158 599.098 77.2982Z" fill="#DA251C"/>
<path d="M574.161 72.5494C574.796 72.2156 575.508 72.0594 576.223 72.0974C576.808 72.1018 577.383 72.2555 577.893 72.5441C578.12 72.7173 578.302 72.9436 578.423 73.2034C578.516 73.4435 578.573 73.6962 578.592 73.9532C578.607 74.2888 578.593 74.6251 578.55 74.9583C578.454 75.6389 578.285 76.2983 578.152 76.9683C577.845 78.4573 577.522 79.9409 577.225 81.4298C577.225 81.5308 577.082 81.499 577.018 81.5096C576.419 81.5096 575.826 81.5096 575.232 81.5096C575.343 80.8023 575.523 80.1111 575.651 79.3825C575.788 78.7657 575.905 78.1435 576.048 77.532C576.196 76.7131 576.409 75.9101 576.53 75.0912C576.577 74.84 576.534 74.5805 576.409 74.3579C576.284 74.1354 576.085 73.9639 575.847 73.8735C575.254 73.7202 574.628 73.7612 574.061 73.9904C573.522 74.2165 573.073 74.6147 572.783 75.1231C572.511 75.6804 572.332 76.2785 572.253 76.8939C571.919 78.42 571.617 79.9568 571.278 81.483C570.616 81.483 569.953 81.483 569.296 81.483C569.826 78.9412 570.356 76.394 570.886 73.8522C570.992 73.3204 571.098 72.7887 571.225 72.2941C571.851 72.2941 572.481 72.2941 573.112 72.2941C573.059 72.679 572.984 73.0607 572.889 73.4374C573.253 73.0651 573.674 72.7528 574.135 72.5121L574.161 72.5494Z" fill="#DA251C"/>
<path d="M591.695 72.3262H593.687C593.067 75.3891 592.399 78.4415 591.779 81.5044H589.781C590.401 78.4415 591.074 75.3891 591.695 72.3262Z" fill="#DA251C"/>
</g>
</g>
<g clip-path="url(#clip3_289_699)">
<g clip-path="url(#clip4_289_699)">
<path fill-rule="evenodd" clip-rule="evenodd" d="M736.308 73.3378H742.549L747.443 54.9053H741.202L736.308 73.3378Z" fill="#005B76"/>
<path fill-rule="evenodd" clip-rule="evenodd" d="M768.37 73.3378H774.611L779.505 54.9053H773.264L768.37 73.3378Z" fill="#005B76"/>
<path fill-rule="evenodd" clip-rule="evenodd" d="M800.433 73.3378H806.674L811.568 54.9053H805.327L800.433 73.3378Z" fill="#005B76"/>
<path fill-rule="evenodd" clip-rule="evenodd" d="M762.55 61.2194H768.797C769.625 57.0768 766.971 54.9414 760.848 54.9414C753.765 54.9414 748.952 58.4423 747.338 64.5196C745.874 70.0277 748.77 73.3838 755.435 73.3838C762.171 73.3838 766.153 71.2681 767.855 66.53H761.591C760.72 68.6161 759.077 69.7052 756.863 69.7052C753.84 69.7052 752.657 67.7705 753.586 64.2728C754.564 60.6238 756.847 58.6134 759.882 58.6134C761.8 58.6134 762.703 59.4821 762.559 61.2194" fill="#005B76"/>
<path fill-rule="evenodd" clip-rule="evenodd" d="M794.622 61.2194H800.869C801.698 57.0768 799.043 54.9414 792.92 54.9414C785.838 54.9414 781.025 58.4423 779.411 64.5196C777.947 70.0277 780.842 73.3838 787.507 73.3838C794.244 73.3838 798.225 71.2681 799.924 66.53H793.653C792.783 68.6161 791.139 69.7052 788.925 69.7052C785.903 69.7052 784.719 67.7705 785.648 64.2728C786.627 60.6238 788.909 58.6134 791.945 58.6134C793.862 58.6134 794.765 59.4821 794.622 61.2194Z" fill="#005B76"/>
<path fill-rule="evenodd" clip-rule="evenodd" d="M712.194 44.6821C720.555 36.3214 730.663 34.153 734.693 39.8749C738.724 45.5969 735.195 57.067 726.835 65.4311C718.475 73.7952 708.363 75.9602 704.336 70.2383C700.309 64.5164 703.834 53.0561 712.194 44.6821Z" fill="#F99D27"/>
<path fill-rule="evenodd" clip-rule="evenodd" d="M717.728 40.2235C716.755 40.9551 715.832 41.7533 714.966 42.6123C707.64 49.8939 704.597 59.9031 708.204 64.9012C711.924 69.9058 720.94 68.0862 728.381 60.6928C732.382 56.7674 735.088 52.1609 736.207 47.8966C736.533 44.7675 736.093 41.974 734.684 39.8747C731.472 35.4394 724.595 35.7815 717.728 40.2038" fill="#B02A30"/>
<path fill-rule="evenodd" clip-rule="evenodd" d="M721.873 69.5571C717.96 72.5184 713.913 73.9925 709.968 73.3772C711.624 73.4628 712.961 71.6103 714.057 69.1195C715.04 66.818 715.815 64.4316 716.372 61.9893C717.151 58.4851 717.21 55.9778 716.815 55.4415C716.163 54.5498 714.621 54.7834 712.902 55.7705C712.081 56.2312 710.985 55.9252 712.28 54.3425C713.574 52.7599 718.801 48.9003 720.673 48.3014C722.727 47.7026 725.075 48.5186 724.282 50.7922C723.718 52.4374 716.512 71.5215 721.876 69.5472L721.873 69.5571ZM727.768 39.9538C728.746 40.9409 728.15 43.0862 726.49 44.7808C724.83 46.4753 722.636 47.0544 721.693 46.0969C720.686 45.1098 721.282 42.9447 722.955 41.2371C724.628 39.5294 726.822 39.0095 727.765 39.9637L727.768 39.9538Z" fill="white"/>
<path fill-rule="evenodd" clip-rule="evenodd" d="M820.943 70.4259L822.371 65.0495H826.46C829.607 65.0495 831.002 65.6121 830.425 67.7903C829.894 69.7843 828.355 70.4226 825.511 70.4226H820.946L820.943 70.4259ZM824.312 57.7515H828.192C831.11 57.7515 832.463 58.1068 831.971 59.9527C831.479 61.7986 829.913 62.256 826.897 62.256H823.115L824.312 57.7515ZM816.231 73.3675H825.593C828.257 73.3675 830.239 73.1602 832.14 71.8309C833.415 70.9627 834.34 69.664 834.749 68.1687C835.424 65.6351 834.273 63.9439 831.413 63.5359C834.113 63.0226 835.812 61.5913 836.392 59.4131C836.839 57.7251 836.474 56.5209 835.271 55.7016C834.293 55.0435 832.662 54.9316 830.451 54.9316H821.123L816.231 73.3675Z" fill="#005B76"/>
<path fill-rule="evenodd" clip-rule="evenodd" d="M846.484 67.428L846.425 67.6616C846.172 68.7656 845.549 69.7478 844.663 70.4435C843.776 71.1391 842.68 71.5057 841.557 71.4817C839.855 71.4817 839.144 70.8237 839.47 69.5865C839.92 67.8985 841.387 67.4346 844.1 67.4346H846.484V67.428ZM845.046 73.3704H848.802C848.931 72.4015 849.126 71.4428 849.386 70.5012L850.752 65.3551C851.659 61.9496 849.989 60.209 845.75 60.209C841.668 60.209 839.004 61.6436 838.185 64.0521H841.785C842.258 62.8479 843.295 62.2852 845.02 62.2852C846.947 62.2852 847.628 63.1539 847.136 65.0228L847.074 65.2531H845.095C839.512 65.2531 836.5 66.2764 835.639 69.5306C834.97 72.0378 836.539 73.6797 839.861 73.6797C841.902 73.7149 843.881 72.9737 845.405 71.6035L845.046 73.3704Z" fill="#005B76"/>
<path fill-rule="evenodd" clip-rule="evenodd" d="M852.024 73.3705H855.807L857.555 66.7898C857.852 65.6548 858.505 64.6473 859.417 63.9178C860.328 63.1884 861.449 62.7761 862.612 62.7426C864.819 62.7426 865.589 64.0588 864.894 66.6614L863.114 73.3705H866.818L868.912 65.4736C869.795 62.1471 868.123 60.2255 864.444 60.2255C863.327 60.1951 862.217 60.408 861.189 60.8498C860.161 61.2915 859.239 61.9517 858.487 62.7854L858.94 60.5085H855.207C854.822 62.5309 854.566 63.7857 854.437 64.2726L852.024 73.3606" fill="#005B76"/>
<path fill-rule="evenodd" clip-rule="evenodd" d="M870.147 73.3671H873.829L875.671 66.4311L880.627 73.3671H885.675L880.093 66.0198L887.667 60.5183H882.923L875.867 65.6907L878.723 54.9346H875.042L870.147 73.3671Z" fill="#005B76"/>
</g>
</g>
<g clip-path="url(#clip5_289_699)">
<path d="M984 32.6797H1170V77.6797H984V32.6797Z" fill="#004C8F"/>
<path d="M1015 32.6797H1170V77.6797H1015V32.6797Z" fill="#004C8F"/>
<path d="M1024.86 65.8306V44.5391H1029.68V51.724H1034.21V44.5391H1039.01V65.8306H1034.18V57.5641H1029.64V65.8306H1024.82" fill="white"/>
<path d="M1046.67 49.8242H1047.92C1048.59 49.7757 1049.27 49.9129 1049.9 50.2286C1050.22 50.4341 1050.49 50.7588 1050.69 51.1691C1050.92 51.6826 1051.09 52.2488 1051.18 52.843C1051.29 53.5554 1051.35 54.2843 1051.35 55.0155C1051.37 56.0849 1051.25 57.1504 1050.98 58.1471C1050.78 58.9073 1050.41 59.5468 1049.92 59.9622C1049.29 60.3959 1048.59 60.5899 1047.89 60.5264H1046.67V49.8242ZM1048.54 65.8117C1049.5 65.8435 1050.45 65.6949 1051.39 65.3697C1052.06 65.1497 1052.7 64.7682 1053.28 64.2412C1053.8 63.7296 1054.25 63.0936 1054.63 62.3603C1055.08 61.4129 1055.43 60.3692 1055.66 59.2663C1055.96 57.888 1056.1 56.4497 1056.08 55.0061C1056.13 52.9328 1055.81 50.8778 1055.15 49.0343C1054.58 47.4882 1053.67 46.2637 1052.56 45.5546C1051.33 44.8288 1050 44.4768 1048.67 44.5202H1041.96V65.8211H1048.54" fill="white"/>
<path d="M1058.29 65.8306V44.5391H1069.73V49.7867H1063.05V53.2005H1068.4V58.3071H1063.05V65.8306H1058.29Z" fill="white"/>
<path d="M1085.89 52.6732H1081.36C1081.31 51.7315 1081.03 50.8466 1080.57 50.1811C1080.11 49.5826 1079.5 49.2691 1078.88 49.3065C1078.48 49.2918 1078.08 49.4135 1077.72 49.6618C1077.36 49.91 1077.04 50.278 1076.8 50.7359C1076.26 51.6764 1075.99 53.2563 1075.99 55.4381C1075.96 56.585 1076.07 57.7307 1076.33 58.8143C1076.53 59.518 1076.86 60.1211 1077.29 60.5447C1077.75 60.9448 1078.29 61.1378 1078.83 61.0996C1079.15 61.1298 1079.47 61.0663 1079.77 60.9128C1080.07 60.7594 1080.35 60.519 1080.59 60.2062C1081.07 59.5109 1081.35 58.5768 1081.38 57.5917H1086.02C1085.94 58.7372 1085.76 59.8615 1085.47 60.9303C1085.16 61.9375 1084.72 62.8501 1084.17 63.62C1083.54 64.5402 1082.79 65.2552 1081.96 65.7171C1081.01 66.2324 1080 66.4782 1078.98 66.4413C1077.93 66.4616 1076.89 66.2231 1075.89 65.736C1075 65.3054 1074.19 64.6103 1073.5 63.6952C1072.86 62.8274 1072.34 61.7937 1071.97 60.6482C1071.45 58.979 1071.19 57.1602 1071.21 55.3253C1071.2 53.7505 1071.39 52.1861 1071.76 50.7077C1072.1 49.3679 1072.62 48.1422 1073.3 47.1059C1073.91 46.1814 1074.65 45.443 1075.46 44.9334C1076.52 44.2941 1077.65 43.9741 1078.79 43.993C1079.81 43.9809 1080.83 44.2129 1081.79 44.6795C1082.66 45.0723 1083.44 45.7628 1084.08 46.6921C1084.68 47.5655 1085.16 48.6088 1085.47 49.7579C1085.73 50.7006 1085.88 51.6926 1085.93 52.7015" fill="white"/>
<path d="M1101.35 49.3259C1101.8 49.2971 1102.25 49.3444 1102.69 49.4669C1102.96 49.5757 1103.2 49.8024 1103.37 50.1158C1103.54 50.4303 1103.64 50.823 1103.63 51.2255C1103.63 51.481 1103.6 51.7348 1103.52 51.9666C1103.45 52.1984 1103.34 52.4019 1103.2 52.561C1102.73 52.9753 1102.18 53.1568 1101.63 53.0782H1099.81V49.3164L1101.35 49.3259ZM1102.56 65.8306C1103.37 65.8612 1104.18 65.7856 1104.98 65.6049C1105.47 65.4285 1105.95 65.1795 1106.41 64.8619C1106.81 64.5932 1107.17 64.231 1107.49 63.7898C1107.87 63.2676 1108.16 62.6237 1108.35 61.9089C1108.55 61.1193 1108.66 60.2804 1108.65 59.4356C1108.68 58.2923 1108.45 57.1654 1108 56.2287C1107.56 55.3689 1106.92 54.7526 1106.21 54.4795C1106.78 54.0526 1107.26 53.4086 1107.61 52.6156C1107.95 51.8226 1108.14 50.9102 1108.15 49.9748C1108.17 49.101 1108.03 48.2362 1107.73 47.4738C1107.44 46.7113 1107 46.0802 1106.48 45.6487C1105.62 44.8839 1104.28 44.5045 1102.47 44.5108H1095.15V65.8023L1102.56 65.8306ZM1101.78 56.9058C1102.43 56.8008 1103.09 56.9844 1103.67 57.4324C1103.81 57.6186 1103.93 57.8474 1104.01 58.1035C1104.09 58.3597 1104.13 58.6374 1104.13 58.9183C1104.13 59.1993 1104.09 59.477 1104.01 59.7331C1103.93 59.9893 1103.81 60.218 1103.67 60.4042C1103.1 60.8662 1102.45 61.054 1101.81 60.9403H1099.87V56.9058H1101.81" fill="white"/>
<path d="M1119.25 58.6739H1116.18L1117.69 50.9247L1119.25 58.6739ZM1114.71 65.8306L1115.27 63.0093H1120.07L1120.63 65.8306H1125.43L1120.17 44.5391H1115.27L1110 65.8306H1114.71Z" fill="white"/>
<path d="M1127.48 65.8306V44.5391H1131.98L1137.05 55.9372V44.5391H1141.67V65.8306H1137.08L1132.12 54.7052V65.8306H1127.48Z" fill="white"/>
<path d="M1144.89 65.8306V44.5391H1149.56V51.5547L1153.92 44.5391H1159.58L1154.21 52.5516L1160.15 65.8306H1154.38L1150.85 57.3666L1149.55 59.2005V65.8494H1144.88" fill="white"/>
<path d="M984 32.6797H1015V77.6797H984V32.6797Z" fill="#ED232A"/>
<path d="M989.429 40.5605H1009.57V69.8082H989.429V40.5605Z" fill="white"/>
<path d="M997.946 32.6797H1001.05V77.6797H997.946V32.6797Z" fill="white"/>
<path d="M984 52.9365H1015V57.4318H984V52.9365Z" fill="white"/>
<path d="M994.851 48.4316H1004.15V61.9364H994.851V48.4316Z" fill="#004C8F"/>
</g>
<defs>
<clipPath id="clip0_289_699">
<rect width="200" height="65" fill="white" transform="translate(22.5 22.6797)"/>
</clipPath>
<clipPath id="clip1_289_699">
<rect width="265" height="110.36" fill="white" transform="translate(341.333)"/>
</clipPath>
<clipPath id="clip2_289_699">
<rect width="265" height="56" fill="white" transform="translate(341.333 27.1797)"/>
</clipPath>
<clipPath id="clip3_289_699">
<rect width="185" height="110.36" fill="white" transform="translate(702.667)"/>
</clipPath>
<clipPath id="clip4_289_699">
<rect width="185" height="37" fill="white" transform="translate(702.667 36.6797)"/>
</clipPath>
<clipPath id="clip5_289_699">
<rect width="186" height="45" fill="white" transform="translate(984 32.6797)"/>
</clipPath>
</defs>
</svg>
