<svg width="31" height="31" viewBox="0 0 31 31" fill="none" xmlns="http://www.w3.org/2000/svg">
<path d="M24.5409 12.2709H24.1276L22.513 8.24094C22.2246 7.52441 21.7287 6.91039 21.0889 6.47772C20.4491 6.04504 19.6946 5.81344 18.9222 5.81264H11.1723C10.275 5.81007 9.40459 6.11901 8.70967 6.68672C8.01476 7.25442 7.53842 8.04571 7.36194 8.92552L6.69029 12.2709H6.45779C5.43009 12.2709 4.44448 12.6791 3.71779 13.4058C2.99109 14.1325 2.58284 15.1181 2.58284 16.1458V20.0208C2.58284 20.3634 2.71892 20.6919 2.96115 20.9341C3.20339 21.1764 3.53192 21.3124 3.87449 21.3124H5.16614C5.16614 22.3401 5.57439 23.3258 6.30109 24.0524C7.02778 24.7791 8.01339 25.1874 9.04109 25.1874C10.0688 25.1874 11.0544 24.7791 11.7811 24.0524C12.5078 23.3258 12.916 22.3401 12.916 21.3124H18.0826C18.0826 22.3401 18.4909 23.3258 19.2176 24.0524C19.9443 24.7791 20.9299 25.1874 21.9576 25.1874C22.9853 25.1874 23.9709 24.7791 24.6976 24.0524C25.4243 23.3258 25.8325 22.3401 25.8325 21.3124H27.1242C27.4668 21.3124 27.7953 21.1764 28.0375 20.9341C28.2798 20.6919 28.4158 20.3634 28.4158 20.0208V16.1458C28.4158 15.1181 28.0076 14.1325 27.2809 13.4058C26.5542 12.6791 25.5686 12.2709 24.5409 12.2709ZM16.791 8.39594H18.9222C19.1787 8.39826 19.4287 8.47689 19.6403 8.62181C19.8519 8.76673 20.0156 8.97138 20.1105 9.20968L21.3376 12.2709H16.791V8.39594ZM9.89358 9.42926C9.95397 9.13312 10.1163 8.86752 10.3523 8.67872C10.5883 8.48991 10.8831 8.38985 11.1852 8.39594H14.2077V12.2709H9.32525L9.89358 9.42926ZM9.04109 22.6041C8.78563 22.6041 8.5359 22.5283 8.32349 22.3864C8.11108 22.2445 7.94552 22.0428 7.84776 21.8067C7.75 21.5707 7.72442 21.311 7.77426 21.0605C7.8241 20.8099 7.94712 20.5797 8.12776 20.3991C8.3084 20.2185 8.53855 20.0954 8.7891 20.0456C9.03966 19.9958 9.29937 20.0214 9.53538 20.1191C9.7714 20.2169 9.97313 20.3824 10.1151 20.5948C10.257 20.8072 10.3327 21.057 10.3327 21.3124C10.3327 21.655 10.1967 21.9835 9.95442 22.2258C9.71219 22.468 9.38366 22.6041 9.04109 22.6041ZM21.9576 22.6041C21.7021 22.6041 21.4524 22.5283 21.24 22.3864C21.0276 22.2445 20.862 22.0428 20.7643 21.8067C20.6665 21.5707 20.6409 21.311 20.6908 21.0605C20.7406 20.8099 20.8636 20.5797 21.0443 20.3991C21.2249 20.2185 21.455 20.0954 21.7056 20.0456C21.9562 19.9958 22.2159 20.0214 22.4519 20.1191C22.6879 20.2169 22.8896 20.3824 23.0316 20.5948C23.1735 20.8072 23.2492 21.057 23.2492 21.3124C23.2492 21.655 23.1132 21.9835 22.8709 22.2258C22.6287 22.468 22.3002 22.6041 21.9576 22.6041ZM25.8325 18.7291H24.8251C24.4619 18.3296 24.0192 18.0103 23.5254 17.7918C23.0316 17.5734 22.4976 17.4605 21.9576 17.4605C21.4176 17.4605 20.8836 17.5734 20.3898 17.7918C19.896 18.0103 19.4533 18.3296 19.0901 18.7291H11.9086C11.5454 18.3296 11.1027 18.0103 10.6089 17.7918C10.1151 17.5734 9.58106 17.4605 9.04109 17.4605C8.50112 17.4605 7.96711 17.5734 7.47331 17.7918C6.97951 18.0103 6.53682 18.3296 6.17363 18.7291H5.16614V16.1458C5.16614 15.8033 5.30222 15.4747 5.54446 15.2325C5.78669 14.9903 6.11522 14.8542 6.45779 14.8542H24.5409C24.8835 14.8542 25.212 14.9903 25.4542 15.2325C25.6965 15.4747 25.8325 15.8033 25.8325 16.1458V18.7291Z" fill="#005E8D"/>
</svg>
