<svg width="37" height="37" viewBox="0 0 37 37" fill="none" xmlns="http://www.w3.org/2000/svg">
<path d="M6.16634 24.6663C4.46346 24.6663 3.08301 23.2859 3.08301 21.583C3.08301 19.8801 4.46346 18.4997 6.16634 18.4997C7.86922 18.4997 9.24967 19.8801 9.24967 21.583C9.24747 23.285 7.86831 24.6641 6.16634 24.6663ZM6.16634 9.24967C4.46346 9.24967 3.08301 7.86922 3.08301 6.16634C3.08301 4.46346 4.46346 3.08301 6.16634 3.08301C7.86922 3.08301 9.24967 4.46346 9.24967 6.16634C9.24747 7.86831 7.86831 9.24747 6.16634 9.24967ZM21.583 9.24967C19.8801 9.24967 18.4997 7.86922 18.4997 6.16634C18.4997 4.46346 19.8801 3.08301 21.583 3.08301C23.2859 3.08301 24.6663 4.46346 24.6663 6.16634C24.6641 7.86831 23.285 9.24747 21.583 9.24967ZM21.583 24.6663C19.8801 24.6663 18.4997 23.2859 18.4997 21.583C18.4997 19.8801 19.8801 18.4997 21.583 18.4997C23.2859 18.4997 24.6663 19.8801 24.6663 21.583C24.6641 23.285 23.285 24.6641 21.583 24.6663Z" fill="#24B0E2"/>
<path d="M15.4163 33.9163C13.7135 33.9163 12.333 32.5359 12.333 30.833C12.333 29.1301 13.7135 27.7497 15.4163 27.7497C17.1192 27.7497 18.4997 29.1301 18.4997 30.833C18.4975 32.535 17.1183 33.9141 15.4163 33.9163ZM15.4163 18.4997C13.7135 18.4997 12.333 17.1192 12.333 15.4163C12.333 13.7135 13.7135 12.333 15.4163 12.333C17.1192 12.333 18.4997 13.7135 18.4997 15.4163C18.4975 17.1183 17.1183 18.4975 15.4163 18.4997ZM30.833 18.4997C29.1301 18.4997 27.7497 17.1192 27.7497 15.4163C27.7497 13.7135 29.1301 12.333 30.833 12.333C32.5359 12.333 33.9163 13.7135 33.9163 15.4163C33.9141 17.1183 32.535 18.4975 30.833 18.4997ZM30.833 33.9163C29.1301 33.9163 27.7497 32.5359 27.7497 30.833C27.7497 29.1301 29.1301 27.7497 30.833 27.7497C32.5359 27.7497 33.9163 29.1301 33.9163 30.833C33.9141 32.535 32.535 33.9141 30.833 33.9163Z" fill="#005E8D"/>
<path d="M18.9291 7.70833C18.357 6.76016 18.357 5.57317 18.9291 4.625H8.82092C9.39302 5.57317 9.39302 6.76016 8.82092 7.70833H18.9291ZM6.16667 18.5C6.70961 18.5031 7.24186 18.6512 7.70833 18.9291V8.82092C6.76016 9.39302 5.57317 9.39302 4.625 8.82092V18.9291C5.09148 18.6512 5.62372 18.5031 6.16667 18.5Z" fill="#B5E6F4"/>
<path d="M30.8333 27.7504C31.3763 27.7535 31.9085 27.9016 32.375 28.1794V18.0713C31.4268 18.6434 30.2398 18.6434 29.2917 18.0713V28.1794C29.7581 27.9016 30.2904 27.7535 30.8333 27.7504ZM15.4167 27.7504C15.9596 27.7535 16.4919 27.9016 16.9583 28.1794V18.0713C16.0102 18.6434 14.8232 18.6434 13.875 18.0713V28.1794C14.3415 27.9016 14.8737 27.7535 15.4167 27.7504Z" fill="#24B0E2"/>
<path d="M18.9294 20.042H16.9587V23.1253H18.9294C18.3573 22.1772 18.3573 20.9902 18.9294 20.042ZM13.8754 23.1253V20.042H8.82129C9.39339 20.9902 9.39339 22.1772 8.82129 23.1253H13.8754Z" fill="#B5E6F4"/>
<path d="M28.1794 29.2917H18.0713C18.6434 30.2398 18.6434 31.4268 18.0713 32.375H28.1794C27.6073 31.4268 27.6073 30.2398 28.1794 29.2917ZM28.1794 16.9583C27.6073 16.0102 27.6073 14.8232 28.1794 13.875H18.0713C18.6434 14.8232 18.6434 16.0102 18.0713 16.9583H28.1794Z" fill="#24B0E2"/>
<path d="M23.1253 13.8754V8.82129C22.1772 9.39339 20.9902 9.39339 20.042 8.82129V13.8754H23.1253ZM20.042 16.9587V18.9294C20.9902 18.3573 22.1772 18.3573 23.1253 18.9294V16.9587H20.042Z" fill="#B5E6F4"/>
</svg>
