<svg width="37" height="37" viewBox="0 0 37 37" fill="none" xmlns="http://www.w3.org/2000/svg">
<path d="M23.1246 3.08301C17.9181 3.0852 13.456 6.80555 12.5176 11.9268C16.9991 9.4744 22.6201 11.1193 25.0725 15.6008C26.5865 18.3676 26.5865 21.715 25.0725 24.4817C30.9328 23.4082 34.8133 17.7872 33.7398 11.9269C32.8011 6.80245 28.3343 3.08104 23.1246 3.08301Z" fill="#B5E6F4"/>
<path d="M10.7913 33.9167C15.0485 33.9167 18.4997 30.4655 18.4997 26.2083C18.4997 21.9511 15.0485 18.5 10.7913 18.5C6.53415 18.5 3.08301 21.9511 3.08301 26.2083C3.08301 30.4655 6.53415 33.9167 10.7913 33.9167Z" fill="#005E8D"/>
<path d="M16.9586 10.792C12.2051 10.7925 8.22569 14.3958 7.75488 19.126C11.6642 17.4463 16.195 19.2539 17.8747 23.1632C18.7089 25.1049 18.7089 27.304 17.8747 29.2457C22.958 28.7403 26.6691 24.2097 26.1636 19.1264C25.6932 14.3954 21.7129 10.7916 16.9586 10.792Z" fill="#5CC7E7"/>
</svg>
