<svg width="37" height="37" viewBox="0 0 37 37" fill="none" xmlns="http://www.w3.org/2000/svg">
<path d="M20.8125 13.875C19.5353 13.875 18.5 12.8397 18.5 11.5625C18.5 10.2853 19.5353 9.25 20.8125 9.25C22.0897 9.25 23.125 10.2853 23.125 11.5625C23.1236 12.8391 22.0891 13.8736 20.8125 13.875Z" fill="#B5E6F4"/>
<path d="M29.2913 3.08301H7.70801C5.15678 3.09045 3.09045 5.15678 3.08301 7.70801V21.3672L9.06467 15.3855C10.8954 13.6434 13.7707 13.6434 15.6013 15.3855L20.0281 19.8363L21.3963 18.4681C23.2054 16.6695 26.1273 16.6695 27.9364 18.4681L33.9163 24.448V7.70801C33.9089 5.15678 31.8426 3.09045 29.2913 3.08301ZM20.8122 13.8747C19.535 13.8747 18.4997 12.8393 18.4997 11.5622C18.4997 10.285 19.535 9.24967 20.8122 9.24967C22.0893 9.24967 23.1247 10.285 23.1247 11.5622C23.1233 12.8388 22.0888 13.8733 20.8122 13.8747Z" fill="#5CC7E7"/>
<path d="M15.6013 15.3857C13.7707 13.6436 10.8954 13.6436 9.06467 15.3857L3.08301 21.3673V29.2915C3.09047 31.8427 5.1568 33.909 7.70801 33.9165H29.2913C30.548 33.916 31.7503 33.4039 32.6213 32.4982L15.6013 15.3857Z" fill="#005E8D"/>
<path d="M33.9166 24.448L27.9366 18.468C26.1275 16.6695 23.2056 16.6695 21.3966 18.468L20.0283 19.8363L32.6149 32.4911C33.4506 31.6359 33.918 30.4871 33.9166 29.2913V24.448Z" fill="#B5E6F4"/>
</svg>
