<svg width="37" height="37" viewBox="0 0 37 37" fill="none" xmlns="http://www.w3.org/2000/svg">
<path d="M9.25033 25.4372C8.18313 25.4372 7.1399 25.1207 6.25256 24.5278C5.36522 23.9349 4.67363 23.0922 4.26523 22.1062C3.85683 21.1203 3.74997 20.0354 3.95817 18.9887C4.16637 17.942 4.68028 16.9805 5.4349 16.2259C6.18952 15.4713 7.15096 14.9574 8.19765 14.7492C9.24434 14.541 10.3293 14.6478 11.3152 15.0562C12.3012 15.4646 13.1439 16.1562 13.7368 17.0436C14.3297 17.9309 14.6462 18.9741 14.6462 20.0413C14.6444 21.4719 14.0754 22.8433 13.0638 23.8549C12.0523 24.8664 10.6809 25.4354 9.25033 25.4372Z" fill="#5CC7E7"/>
<path d="M13.3207 23.5437C12.8212 24.1368 12.198 24.6136 11.4949 24.9406C10.7919 25.2677 10.0258 25.4371 9.25033 25.4371C8.47488 25.4371 7.7088 25.2677 7.0057 24.9406C6.3026 24.6136 5.67947 24.1368 5.17992 23.5437C4.06991 24.2319 3.15346 25.1915 2.51697 26.3319C1.88049 27.4724 1.54495 28.7561 1.54199 30.0622C1.54199 30.4711 1.70442 30.8632 1.99354 31.1523C2.28265 31.4414 2.67478 31.6038 3.08366 31.6038H15.417C15.8259 31.6038 16.218 31.4414 16.5071 31.1523C16.7962 30.8632 16.9587 30.4711 16.9587 30.0622C16.9557 28.7561 16.6202 27.4724 15.9837 26.3319C15.3472 25.1915 14.4307 24.2319 13.3207 23.5437ZM27.7503 25.4372C26.6831 25.4372 25.6399 25.1207 24.7526 24.5278C23.8652 23.9349 23.1736 23.0922 22.7652 22.1062C22.3568 21.1203 22.25 20.0354 22.4582 18.9887C22.6664 17.942 23.1803 16.9805 23.9349 16.2259C24.6895 15.4713 25.651 14.9574 26.6977 14.7492C27.7443 14.541 28.8293 14.6478 29.8152 15.0562C30.8012 15.4646 31.6439 16.1562 32.2368 17.0436C32.8297 17.9309 33.1462 18.9741 33.1462 20.0413C33.1444 21.4719 32.5754 22.8433 31.5638 23.8549C30.5523 24.8664 29.1809 25.4354 27.7503 25.4372Z" fill="#24B0E2"/>
<path d="M31.8207 23.5439C31.3212 24.137 30.698 24.6138 29.9949 24.9409C29.2919 25.2679 28.5258 25.4374 27.7503 25.4374C26.9749 25.4374 26.2088 25.2679 25.5057 24.9409C24.8026 24.6138 24.1795 24.137 23.6799 23.5439C22.5699 24.2321 21.6535 25.1917 21.017 26.3322C20.3805 27.4726 20.045 28.7564 20.042 30.0624C20.042 30.4713 20.2044 30.8634 20.4935 31.1526C20.7827 31.4417 21.1748 31.6041 21.5837 31.6041H33.917C34.3259 31.6041 34.718 31.4417 35.0071 31.1526C35.2962 30.8634 35.4587 30.4713 35.4587 30.0624C35.4557 28.7564 35.1202 27.4726 34.4837 26.3322C33.8472 25.1917 32.9307 24.2321 31.8207 23.5439Z" fill="#0D8EC1"/>
<path d="M26.5271 8.93133L23.4438 5.848C23.1538 5.56324 22.7631 5.40451 22.3567 5.40635C21.9503 5.40819 21.561 5.57045 21.2737 5.85783C20.9863 6.1452 20.824 6.53444 20.8222 6.94085C20.8204 7.34726 20.9791 7.73795 21.2638 8.02792L21.7156 8.47962H15.2838L15.7355 8.02792C16.0216 7.73821 16.1814 7.34708 16.1801 6.93993C16.1789 6.53279 16.0165 6.14268 15.7286 5.85479C15.4407 5.5669 15.0506 5.4046 14.6435 5.40333C14.2363 5.40206 13.8452 5.56191 13.5555 5.848L10.4722 8.93133C10.329 9.07445 10.2154 9.24437 10.1379 9.4314C10.0604 9.61843 10.0205 9.81889 10.0205 10.0213C10.0205 10.2238 10.0604 10.4243 10.1379 10.6113C10.2154 10.7983 10.329 10.9682 10.4722 11.1113L13.5555 14.1947C13.8452 14.4808 14.2363 14.6406 14.6435 14.6393C15.0506 14.638 15.4407 14.4757 15.7286 14.1878C16.0165 13.8999 16.1788 13.5098 16.1801 13.1026C16.1814 12.6955 16.0215 12.3044 15.7354 12.0147L15.2837 11.563H21.7154L21.2637 12.0147C20.9746 12.3038 20.8122 12.6959 20.8122 13.1047C20.8122 13.5135 20.9747 13.9056 21.2638 14.1947C21.5528 14.4838 21.9449 14.6461 22.3538 14.6461C22.7626 14.6461 23.1547 14.4837 23.4438 14.1946L26.5271 11.1112C26.6703 10.9681 26.7838 10.7982 26.8613 10.6112C26.9388 10.4242 26.9787 10.2237 26.9787 10.0213C26.9787 9.81885 26.9388 9.6184 26.8613 9.43138C26.7838 9.24436 26.6703 9.07445 26.5271 8.93133Z" fill="#005E8D"/>
</svg>
