<svg width="37" height="37" viewBox="0 0 37 37" fill="none" xmlns="http://www.w3.org/2000/svg">
<path d="M29.2913 9.25H7.70801C5.1537 9.25 3.08301 11.3207 3.08301 13.875V18.0697L13.624 21.5833H23.3753L33.9163 18.0697V13.875C33.9163 11.3207 31.8457 9.25 29.2913 9.25Z" fill="#5CC7E7"/>
<path d="M15.4163 9.25V7.70833H21.583V9.25H24.6663V7.70833C24.6644 6.00626 23.2851 4.62694 21.583 4.625H15.4163C13.7143 4.62694 12.335 6.00626 12.333 7.70833V9.25H15.4163ZM13.624 21.5833L3.08301 18.0696V27.75C3.0858 30.3032 5.15484 32.3722 7.70801 32.375H29.2913C31.8445 32.3722 33.9136 30.3032 33.9163 27.75V18.0696L23.3753 21.5833H13.624Z" fill="#005E8D"/>
</svg>
